<svg width="35" height="35" viewBox="0 0 35 35" fill="none" xmlns="http://www.w3.org/2000/svg">
<rect width="35" height="35" rx="17.5" fill="#6B5279"/>
<path d="M21.5 7.5V11.5M13.5 7.5V11.5M26.5 17.5C26.5 13.729 26.5 11.843 25.328 10.672C24.156 9.501 22.271 9.5 18.5 9.5H16.5C12.729 9.5 10.843 9.5 9.672 10.672C8.501 11.844 8.5 13.729 8.5 17.5V19.5C8.5 23.271 8.5 25.157 9.672 26.328C10.844 27.499 12.729 27.5 16.5 27.5M8.5 15.5H26.5" stroke="#FEFBEA" stroke-width="1.5" stroke-linecap="round" stroke-linejoin="round"/>
<path d="M23.767 24.201L22.5 23.5V21.767M26.5 23.5C26.5 24.5609 26.0786 25.5783 25.3284 26.3284C24.5783 27.0786 23.5609 27.5 22.5 27.5C21.4391 27.5 20.4217 27.0786 19.6716 26.3284C18.9214 25.5783 18.5 24.5609 18.5 23.5C18.5 22.4391 18.9214 21.4217 19.6716 20.6716C20.4217 19.9214 21.4391 19.5 22.5 19.5C23.5609 19.5 24.5783 19.9214 25.3284 20.6716C26.0786 21.4217 26.5 22.4391 26.5 23.5Z" stroke="#FEFBEA" stroke-width="1.5" stroke-linecap="round" stroke-linejoin="round"/>
</svg>
