<svg width="24" height="24" viewBox="0 0 24 24" fill="none" xmlns="http://www.w3.org/2000/svg">
<path d="M12.5931 23.258L12.582 23.26L12.511 23.295L12.491 23.299L12.477 23.295L12.406 23.26C12.3954 23.2567 12.3874 23.2583 12.382 23.265L12.378 23.275L12.361 23.703L12.366 23.723L12.376 23.736L12.48 23.81L12.495 23.814L12.507 23.81L12.611 23.736L12.623 23.72L12.627 23.703L12.61 23.276C12.6074 23.2653 12.6017 23.2593 12.5931 23.258ZM12.858 23.145L12.845 23.147L12.66 23.24L12.65 23.25L12.647 23.261L12.665 23.691L12.67 23.703L12.6781 23.71L12.879 23.803C12.8917 23.8063 12.9014 23.8037 12.908 23.795L12.912 23.781L12.878 23.167C12.8747 23.155 12.868 23.1477 12.858 23.145ZM12.143 23.147C12.1386 23.1443 12.1334 23.1435 12.1283 23.1446C12.1233 23.1457 12.1189 23.1487 12.116 23.153L12.11 23.167L12.076 23.781C12.0767 23.793 12.0824 23.801 12.0931 23.805L12.108 23.803L12.309 23.71L12.319 23.702L12.323 23.691L12.34 23.261L12.337 23.249L12.327 23.239L12.143 23.147Z" fill="#FEFBEA"/>
<path d="M7.23799 17.013C7.41795 16.8337 7.65942 16.7295 7.91337 16.7218C8.16732 16.714 8.4147 16.8032 8.60527 16.9713C8.79583 17.1393 8.91529 17.3736 8.93939 17.6265C8.96348 17.8794 8.8904 18.132 8.73499 18.333L8.65199 18.427L6.35399 20.725C6.13612 20.9425 5.84563 21.072 5.5382 21.0886C5.23077 21.1052 4.92803 21.0078 4.68799 20.815L4.58599 20.725L3.34899 19.487C3.16964 19.307 3.06552 19.0656 3.05776 18.8116C3.05001 18.5577 3.1392 18.3103 3.30724 18.1197C3.47527 17.9292 3.70954 17.8097 3.96246 17.7856C4.21539 17.7615 4.468 17.8346 4.66899 17.99L4.76299 18.073L5.46999 18.78L7.23799 17.012V17.013ZM20 18C20.2652 18 20.5196 18.1054 20.7071 18.2929C20.8946 18.4804 21 18.7348 21 19C21 19.2652 20.8946 19.5196 20.7071 19.7071C20.5196 19.8947 20.2652 20 20 20H11C10.7348 20 10.4804 19.8947 10.2929 19.7071C10.1053 19.5196 9.99999 19.2652 9.99999 19C9.99999 18.7348 10.1053 18.4804 10.2929 18.2929C10.4804 18.1054 10.7348 18 11 18H20ZM8.65199 10.012C8.74497 10.1049 8.81872 10.2152 8.86905 10.3366C8.91937 10.458 8.94528 10.5881 8.94528 10.7195C8.94528 10.8509 8.91937 10.9811 8.86905 11.1024C8.81872 11.2238 8.74497 11.3341 8.65199 11.427L6.35399 13.725C6.23791 13.8411 6.1001 13.9332 5.94842 13.9961C5.79674 14.0589 5.63417 14.0912 5.46999 14.0912C5.30581 14.0912 5.14324 14.0589 4.99156 13.9961C4.83988 13.9332 4.70207 13.8411 4.58599 13.725L3.34899 12.487C3.25348 12.3948 3.1773 12.2844 3.12489 12.1624C3.07248 12.0404 3.04489 11.9092 3.04374 11.7764C3.04259 11.6436 3.06789 11.5119 3.11817 11.3891C3.16845 11.2662 3.2427 11.1545 3.33659 11.0606C3.43049 10.9667 3.54214 10.8925 3.66504 10.8422C3.78793 10.7919 3.91961 10.7666 4.05239 10.7678C4.18517 10.7689 4.31639 10.7965 4.43839 10.8489C4.5604 10.9013 4.67074 10.9775 4.76299 11.073L5.46999 11.78L7.23799 10.013C7.42552 9.82554 7.67983 9.72022 7.94499 9.72022C8.21015 9.72022 8.46446 9.82454 8.65199 10.012ZM20 11C20.2549 11.0003 20.5 11.0979 20.6854 11.2729C20.8707 11.4478 20.9822 11.687 20.9972 11.9414C21.0121 12.1958 20.9293 12.4464 20.7657 12.6418C20.6021 12.8373 20.3701 12.9629 20.117 12.993L20 13H11C10.7452 12.9995 10.5002 12.9017 10.3151 12.7267C10.1299 12.5516 10.0186 12.3125 10.0038 12.0581C9.98897 11.8038 10.0718 11.5533 10.2354 11.358C10.399 11.1626 10.631 11.0371 10.884 11.007L11 11H20ZM7.23799 3.01301C7.41795 2.83366 7.65942 2.72953 7.91337 2.72178C8.16732 2.71403 8.4147 2.80322 8.60527 2.97126C8.79583 3.13929 8.91529 3.37356 8.93939 3.62648C8.96348 3.87941 8.8904 4.13202 8.73499 4.33301L8.65199 4.42701L6.35399 6.72501C6.13612 6.94255 5.84563 7.07203 5.5382 7.08864C5.23077 7.10524 4.92803 7.00781 4.68799 6.81501L4.58599 6.72501L3.34899 5.48701C3.16964 5.30705 3.06552 5.06557 3.05776 4.81162C3.05001 4.55767 3.1392 4.31029 3.30724 4.11973C3.47527 3.92916 3.70954 3.8097 3.96246 3.78561C4.21539 3.76152 4.468 3.8346 4.66899 3.99001L4.76299 4.07301L5.46999 4.78001L7.23799 3.01301ZM20 4.00001C20.2549 4.00029 20.5 4.09789 20.6854 4.27286C20.8707 4.44783 20.9822 4.68696 20.9972 4.9414C21.0121 5.19584 20.9293 5.44639 20.7657 5.64184C20.6021 5.83729 20.3701 5.9629 20.117 5.99301L20 6.00001H11C10.7452 5.99947 10.5002 5.9017 10.3151 5.72665C10.1299 5.5516 10.0186 5.31248 10.0038 5.05812C9.98897 4.80375 10.0718 4.55333 10.2354 4.35798C10.399 4.16263 10.631 4.0371 10.884 4.00701L11 4.00001H20Z" fill="#FEFBEA"/>
</svg>
