<svg width="24" height="24" viewBox="0 0 24 24" fill="none" xmlns="http://www.w3.org/2000/svg">
<path d="M20.193 12.9991C20.5931 13.6817 20.8544 14.4368 20.9615 15.2208C21.0687 16.0048 21.0198 16.8022 20.8176 17.5672C20.6153 18.3322 20.2637 19.0496 19.7831 19.6782C19.3024 20.3068 18.7022 20.8341 18.0169 21.2297C17.3317 21.6253 16.5749 21.8815 15.7902 21.9835C15.0055 22.0855 14.2084 22.0313 13.4448 21.824C12.6812 21.6167 11.9661 21.2603 11.3407 20.7755C10.7153 20.2907 10.1921 19.687 9.80096 18.9991M20.193 12.9991C19.3917 11.6323 18.0822 10.6379 16.5505 10.2329C15.0187 9.82791 13.3889 10.0453 12.0168 10.8375C10.6447 11.6297 9.6416 12.9325 9.22647 14.4615C8.81134 15.9906 9.01786 17.6218 9.80096 18.9991M20.193 12.9991L9.80096 18.9991" stroke="#FEFBEA" stroke-width="1.5"/>
<path d="M10.043 5.54206L15.128 2.53706C17 1.43106 19.394 2.08706 20.475 4.00406C20.8881 4.73754 21.0642 5.58086 20.9792 6.41837C20.8941 7.25587 20.5521 8.04658 20 8.68206M10.043 5.54206L4.95801 8.54706C3.08601 9.65306 2.44401 12.1031 3.52501 14.0191C3.82708 14.5625 4.2547 15.0258 4.77221 15.3704C5.28972 15.715 5.88212 15.9309 6.50001 16.0001M10.043 5.54206L11.5 8.00006" stroke="#FEFBEA" stroke-width="1.5" stroke-linecap="round" stroke-linejoin="round"/>
</svg>
