<svg width="35" height="35" viewBox="0 0 35 35" fill="none" xmlns="http://www.w3.org/2000/svg">
<rect width="35" height="35" rx="17.5" fill="#6B5279"/>
<path fill-rule="evenodd" clip-rule="evenodd" d="M25.4782 18.0229L17.9902 25.4916C16.9922 26.4677 15.65 27.0098 14.2553 26.9999C12.8606 26.99 11.5261 26.429 10.5421 25.4388C9.55799 24.4487 9.00381 23.1094 9.00002 21.7121C8.99623 20.3149 9.54312 18.9726 10.5218 17.9771L18.0098 10.5084C19.0078 9.53226 20.35 8.99024 21.7447 9.00013C23.1394 9.01002 24.4739 9.57103 25.4579 10.5612C26.442 11.5513 26.9962 12.8906 27 14.2879C27.0038 15.6851 26.4569 17.0274 25.4782 18.0229ZM24.1732 11.8428C23.5315 11.1981 22.6607 10.8348 21.7519 10.8327C20.8431 10.8306 19.9706 11.1898 19.326 11.8316L11.8371 19.3004C11.1927 19.9431 10.8295 20.8159 10.8275 21.7268C10.8255 22.6377 11.1848 23.5121 11.8264 24.1577C12.4679 24.8032 13.3391 25.167 14.2484 25.169C15.1577 25.171 16.0306 24.8111 16.6749 24.1684L24.1629 16.6996C24.8068 16.0568 25.1696 15.1842 25.1717 14.2735C25.1738 13.3629 24.815 12.4886 24.1741 11.8428H24.1732Z" fill="#FEFBEA"/>
<path fill-rule="evenodd" clip-rule="evenodd" d="M14.5205 14.4967C14.6953 14.3217 14.9323 14.2233 15.1795 14.2233C15.4267 14.2233 15.6637 14.3217 15.8385 14.4967L21.4781 20.1464C21.6479 20.3225 21.7418 20.5584 21.7397 20.8033C21.7376 21.0481 21.6395 21.2823 21.4667 21.4555C21.2939 21.6286 21.0601 21.7268 20.8157 21.7289C20.5713 21.7311 20.3358 21.6369 20.16 21.4668L14.5205 15.8172C14.3457 15.6421 14.2476 15.4046 14.2476 15.157C14.2476 14.9093 14.3457 14.6719 14.5205 14.4967Z" fill="#FEFBEA"/>
</svg>
