<svg width="35" height="35" viewBox="0 0 35 35" fill="none" xmlns="http://www.w3.org/2000/svg">
<rect width="35" height="35" rx="17.5" fill="#6B5279"/>
<path d="M25.5 13H9.5C8.67157 13 8 13.6716 8 14.5V24.5C8 25.3284 8.67157 26 9.5 26H25.5C26.3284 26 27 25.3284 27 24.5V14.5C27 13.6716 26.3284 13 25.5 13Z" stroke="#FEFBEA" stroke-width="2" stroke-linejoin="round"/>
<path d="M22 10V12.5H21V10H22ZM14 10V12.5H13V10H14ZM20.5 7.56543C20.8428 7.65405 21.1594 7.83128 21.4141 8.08594C21.6687 8.34053 21.845 8.65726 21.9336 9H20.8643C20.821 8.92524 20.7692 8.85509 20.707 8.79297C20.6448 8.73073 20.5749 8.67806 20.5 8.63477V7.56543ZM14.5 8.63477C14.4251 8.67806 14.3552 8.73073 14.293 8.79297C14.2308 8.85509 14.179 8.92524 14.1357 9H13.0664C13.155 8.65726 13.3313 8.34053 13.5859 8.08594C13.8406 7.83128 14.1572 7.65405 14.5 7.56543V8.63477ZM19.5 7.5V8.5H15.5V7.5H19.5Z" fill="#FEFBEA" stroke="#FEFBEA"/>
<path d="M14.5 19.5H20.5M17.5 16.5V22.5" stroke="#FEFBEA" stroke-width="2" stroke-linecap="round" stroke-linejoin="round"/>
</svg>
