<svg width="19" height="19" viewBox="0 0 19 19" fill="none" xmlns="http://www.w3.org/2000/svg">
<path d="M14.85 9.48479L14.142 8.77779L4.242 18.6778H0V14.4348L11.314 3.12079L16.971 8.77779C17.1585 8.96531 17.2638 9.21962 17.2638 9.48479C17.2638 9.74995 17.1585 10.0043 16.971 10.1918L9.9 17.2638L8.485 15.8488L14.85 9.48479ZM12.728 7.36379L11.314 5.94979L2 15.2638V16.6778H3.414L12.728 7.36379ZM15.556 0.292787L18.385 3.12079C18.478 3.21366 18.5517 3.32395 18.6021 3.44535C18.6524 3.56674 18.6783 3.69687 18.6783 3.82829C18.6783 3.9597 18.6524 4.08983 18.6021 4.21123C18.5517 4.33262 18.478 4.44291 18.385 4.53579L16.97 5.94979L12.728 1.70679L14.142 0.292787C14.3295 0.105316 14.5838 0 14.849 0C15.1142 0 15.3685 0.105316 15.556 0.292787Z" fill="#6B5279"/>
</svg>
