<svg width="24" height="24" viewBox="0 0 24 24" fill="none" xmlns="http://www.w3.org/2000/svg">
<path d="M17.85 11.698L17.142 10.991L7.242 20.891H3V16.648L14.314 5.334L19.971 10.991C20.1585 11.1785 20.2638 11.4328 20.2638 11.698C20.2638 11.9632 20.1585 12.2175 19.971 12.405L12.9 19.477L11.485 18.062L17.85 11.698ZM15.728 9.577L14.314 8.163L5 17.477V18.891H6.414L15.728 9.577ZM18.556 2.506L21.385 5.334C21.478 5.42687 21.5517 5.53716 21.6021 5.65856C21.6524 5.77996 21.6783 5.91008 21.6783 6.0415C21.6783 6.17291 21.6524 6.30304 21.6021 6.42444C21.5517 6.54584 21.478 6.65612 21.385 6.749L19.97 8.163L15.728 3.92L17.142 2.506C17.3295 2.31853 17.5838 2.21321 17.849 2.21321C18.1142 2.21321 18.3685 2.31853 18.556 2.506Z" fill="#6B5279"/>
</svg>
