<svg width="24" height="24" viewBox="0 0 24 24" fill="none" xmlns="http://www.w3.org/2000/svg">
<path d="M12 14C13.1046 14 14 13.1046 14 12C14 10.8954 13.1046 10 12 10C10.8954 10 10 10.8954 10 12C10 13.1046 10.8954 14 12 14Z" fill="#FEFBEA"/>
<path d="M5.39899 5.88001L5.77399 5.23001C5.62676 5.14507 5.45504 5.11267 5.28698 5.1381C5.11893 5.16354 4.96449 5.24531 4.84899 5.37001L5.39899 5.88001ZM3.39999 9.34401L2.68299 9.12201C2.63283 9.28446 2.63936 9.45913 2.7015 9.61738C2.76363 9.77564 2.8777 9.90808 3.02499 9.99301L3.39999 9.34401ZM3.39799 14.655L3.02299 14.005C2.87567 14.0901 2.76167 14.2228 2.6997 14.3813C2.63774 14.5397 2.63149 14.7145 2.68199 14.877L3.39799 14.655ZM5.39799 18.119L4.84799 18.629C4.96349 18.7537 5.11793 18.8355 5.28598 18.8609C5.45404 18.8863 5.62576 18.8539 5.77299 18.769L5.39799 18.119ZM9.99799 20.774H9.24799C9.24799 21.124 9.49099 21.427 9.83199 21.505L9.99799 20.774ZM13.999 20.776L14.166 21.508C14.3317 21.4701 14.4797 21.3771 14.5857 21.2441C14.6916 21.1111 14.7492 20.946 14.749 20.776H13.999ZM18.6 18.12L18.225 18.77C18.3722 18.8549 18.5439 18.8873 18.712 18.8619C18.8801 18.8365 19.0345 18.7547 19.15 18.63L18.6 18.12ZM20.598 14.654L21.315 14.876C21.3651 14.7136 21.3586 14.5389 21.2965 14.3806C21.2343 14.2224 21.1203 14.0899 20.973 14.005L20.598 14.654ZM20.6 9.34301L20.975 9.99301C21.1223 9.90789 21.2363 9.77521 21.2983 9.61675C21.3602 9.4583 21.3665 9.28348 21.316 9.12101L20.6 9.34301ZM18.6 5.87801L19.15 5.36901C19.0345 5.24431 18.8801 5.16254 18.712 5.1371C18.5439 5.11167 18.3722 5.14407 18.225 5.22901L18.6 5.87801ZM14 3.22501H14.75C14.7499 3.05515 14.6923 2.89033 14.5863 2.75754C14.4804 2.62474 14.3326 2.53183 14.167 2.49401L14 3.22501ZM9.99999 3.22301L9.83299 2.49101C9.66723 2.52887 9.51925 2.62193 9.41332 2.75493C9.30739 2.88793 9.2498 3.05298 9.24999 3.22301H9.99999ZM4.11699 9.56601C4.48095 8.38292 5.10678 7.29704 5.94799 6.38901L4.84799 5.36901C3.85393 6.44198 3.1143 7.72506 2.68399 9.12301L4.11699 9.56601ZM4.85499 16.125C4.54629 15.5909 4.29809 15.0241 4.11499 14.435L2.68299 14.878C2.89883 15.5741 3.19164 16.2439 3.55599 16.875L4.85499 16.125ZM5.94899 17.611C5.53022 17.1579 5.16329 16.6595 4.85499 16.125L3.55599 16.875C3.92007 17.5062 4.35341 18.0939 4.84799 18.629L5.94899 17.611ZM13.833 20.046C12.6263 20.3206 11.3733 20.3199 10.167 20.044L9.83299 21.506C11.2591 21.8325 12.7404 21.8335 14.167 21.509L13.833 20.046ZM19.883 14.434C19.519 15.6171 18.8932 16.703 18.052 17.611L19.152 18.631C20.146 17.558 20.8857 16.275 21.316 14.877L19.883 14.434ZM19.145 7.87501C19.459 8.42367 19.7057 8.98701 19.885 9.56501L21.317 9.12201C21.1011 8.42595 20.8083 7.75614 20.444 7.12501L19.145 7.87501ZM18.05 6.38901C18.46 6.83201 18.828 7.32901 19.144 7.87501L20.444 7.12501C20.0796 6.49374 19.6449 5.9041 19.15 5.36901L18.05 6.38901ZM10.166 3.95401C11.3726 3.67938 12.6256 3.68006 13.832 3.95601L14.167 2.49401C12.7409 2.16752 11.2585 2.1665 9.83199 2.49101L10.166 3.95401ZM10.749 5.07201V3.22201H9.24899V5.07201H10.749ZM7.37499 6.15401L5.77399 5.23001L5.02399 6.52901L6.62399 7.45301L7.37499 6.15401ZM4.62499 13.083L3.02399 14.007L3.77399 15.306L5.37499 14.382L4.62499 13.083ZM5.37499 9.61801L3.77499 8.69501L3.02499 9.99501L4.62499 10.918L5.37499 9.61801ZM10.75 20.775V18.928H9.24999V20.775H10.75ZM6.62499 16.547L5.02399 17.471L5.77399 18.771L7.37399 17.846L6.62499 16.547ZM18.976 17.471L17.375 16.547L16.625 17.846L18.225 18.77L18.976 17.471ZM14.75 20.777V18.928H13.25V20.778L14.75 20.777ZM20.226 8.69401L18.625 9.61801L19.375 10.918L20.975 9.99301L20.226 8.69401ZM20.974 14.006L19.375 13.082L18.625 14.382L20.225 15.305L20.974 14.006ZM14.75 5.07201V3.22501H13.25V5.07201H14.75ZM18.226 5.23001L16.625 6.15401L17.375 7.45401L18.976 6.52901L18.226 5.23001ZM13.25 5.07201C13.25 7.18901 15.542 8.51301 17.375 7.45401L16.625 6.15401C16.435 6.26369 16.2195 6.32145 16.0001 6.32147C15.7807 6.3215 15.5652 6.26379 15.3752 6.15414C15.1852 6.04449 15.0274 5.88677 14.9177 5.69682C14.8079 5.50687 14.7501 5.29138 14.75 5.07201H13.25ZM18.625 9.61801C16.792 10.677 16.792 13.323 18.625 14.382L19.375 13.082C19.185 12.9723 19.0272 12.8145 18.9175 12.6245C18.8078 12.4345 18.75 12.2189 18.75 11.9995C18.75 11.7801 18.8078 11.5646 18.9175 11.3745C19.0272 11.1845 19.185 11.0267 19.375 10.917L18.625 9.61801ZM17.375 16.547C15.542 15.488 13.25 16.811 13.25 18.928H14.75C14.7501 18.7086 14.8079 18.4931 14.9177 18.3032C15.0274 18.1132 15.1852 17.9555 15.3752 17.8459C15.5652 17.7362 15.7807 17.6785 16.0001 17.6785C16.2195 17.6786 16.435 17.7363 16.625 17.846L17.375 16.547ZM10.75 18.928C10.75 16.811 8.45799 15.488 6.62499 16.547L7.37399 17.846C7.56397 17.7363 7.78048 17.6786 7.99986 17.6785C8.21923 17.6785 8.43475 17.7362 8.62476 17.8459C8.81477 17.9555 8.97257 18.1132 9.08232 18.3032C9.19207 18.4931 9.2499 18.7086 9.24999 18.928H10.75ZM5.37499 14.382C7.20799 13.323 7.20799 10.677 5.37499 9.61801L4.62499 10.918C4.815 11.0277 4.97278 11.1855 5.08248 11.3755C5.19218 11.5656 5.24993 11.7811 5.24993 12.0005C5.24993 12.2199 5.19218 12.4355 5.08248 12.6255C4.97278 12.8155 4.815 12.9733 4.62499 13.083L5.37499 14.382ZM9.24999 5.07201C9.2499 5.29138 9.19207 5.50687 9.08232 5.69682C8.97257 5.88677 8.81477 6.04449 8.62476 6.15414C8.43475 6.26379 8.21923 6.3215 7.99986 6.32147C7.78048 6.32145 7.56497 6.26369 7.37499 6.15401L6.62499 7.45401C8.45799 8.51201 10.75 7.18901 10.75 5.07201H9.24999Z" fill="#FEFBEA"/>
</svg>
